<?xml version="1.0" encoding="UTF-8" standalone="no"?>
<!-- Created with Inkscape (http://www.inkscape.org/) -->

<svg
   width="210mm"
   height="297mm"
   viewBox="0 0 210 297"
   version="1.1"
   id="svg5"
   inkscape:version="1.2.1 (9c6d41e, 2022-07-14)"
   sodipodi:docname="definition-of-time-dependent-vector-field.svg"
   xmlns:inkscape="http://www.inkscape.org/namespaces/inkscape"
   xmlns:sodipodi="http://sodipodi.sourceforge.net/DTD/sodipodi-0.dtd"
   xmlns="http://www.w3.org/2000/svg"
   xmlns:svg="http://www.w3.org/2000/svg">
  <sodipodi:namedview
     id="namedview7"
     pagecolor="#ffffff"
     bordercolor="#666666"
     borderopacity="1.0"
     inkscape:pageshadow="2"
     inkscape:pageopacity="0.0"
     inkscape:pagecheckerboard="0"
     inkscape:document-units="mm"
     showgrid="false"
     inkscape:zoom="2.0228103"
     inkscape:cx="354.95173"
     inkscape:cy="401.66891"
     inkscape:window-width="1720"
     inkscape:window-height="1387"
     inkscape:window-x="0"
     inkscape:window-y="25"
     inkscape:window-maximized="0"
     inkscape:current-layer="svg5"
     inkscape:showpageshadow="2"
     inkscape:deskcolor="#d1d1d1" />
  <defs
     id="defs2">
    <marker
       style="overflow:visible"
       id="Arrow1L"
       refX="0"
       refY="0"
       orient="auto-start-reverse"
       inkscape:stockid="Arrow1L"
       markerWidth="6"
       markerHeight="3.4285715"
       viewBox="0 0 8.75 5"
       inkscape:isstock="true"
       inkscape:collect="always"
       preserveAspectRatio="xMidYMid">
      <path
         style="fill:context-stroke;fill-rule:evenodd;stroke:none"
         d="M 0,0 5,-5 -12.5,0 5,5 Z"
         id="arrow1L"
         transform="scale(-0.5)" />
    </marker>
    <marker
       style="overflow:visible"
       id="Arrow2"
       refX="0"
       refY="0"
       orient="auto-start-reverse"
       inkscape:stockid="Arrow2"
       markerWidth="7.6999998"
       markerHeight="5.5999999"
       viewBox="0 0 7.7 5.6"
       inkscape:isstock="true"
       inkscape:collect="always"
       preserveAspectRatio="xMidYMid">
      <path
         transform="scale(0.7)"
         d="M -2,-4 9,0 -2,4 c 2,-2.33 2,-5.66 0,-8 z"
         style="fill:context-stroke;fill-rule:evenodd;stroke:none"
         id="arrow2L" />
    </marker>
    <inkscape:path-effect
       effect="spiro"
       id="path-effect8155"
       is_visible="true"
       lpeversion="1" />
    <inkscape:path-effect
       effect="spiro"
       id="path-effect1991"
       is_visible="true"
       lpeversion="1" />
    <inkscape:path-effect
       effect="spiro"
       id="path-effect1991-8"
       is_visible="true"
       lpeversion="1" />
    <inkscape:path-effect
       effect="spiro"
       id="path-effect8155-3"
       is_visible="true"
       lpeversion="1" />
    <inkscape:path-effect
       effect="spiro"
       id="path-effect1991-9"
       is_visible="true"
       lpeversion="1" />
    <clipPath
       clipPathUnits="userSpaceOnUse"
       id="clipPath21020">
      <path
         id="path21022"
         style="fill:#ff0000;fill-opacity:1;fill-rule:nonzero;stroke:none;stroke-width:0.264583"
         d="m 19.121313,85.730683 v 27.290847 h 19.062404 c 0.13744,-0.0523 0.273399,-0.10956 0.406691,-0.17312 0.64339,-0.3365 1.266105,-0.7033 1.851567,-1.13482 0.46073,-0.31091 0.929312,-0.60923 1.444358,-0.82372 0.270518,-0.11147 0.534011,-0.24079 0.794782,-0.3731 0.316669,-0.15317 0.642998,-0.2862 0.961181,-0.43615 0.304191,-0.12597 0.609653,-0.19652 0.93948,-0.17673 0.260067,-0.005 0.520422,-0.0122 0.779796,-0.0331 0.454387,-0.0369 0.906708,-0.0951 1.355989,-0.1726 0.932442,-0.16548 1.866019,-0.3367 2.78071,-0.58394 0.726903,-0.21327 1.420395,-0.49972 2.106332,-0.82062 0.410012,-0.16149 0.833017,-0.28209 1.258837,-0.39481 0.468736,-0.12035 0.942679,-0.2289 1.423168,-0.2899 0.443785,-0.0495 0.888656,-0.0595 1.334286,-0.0589 0.148542,1.9e-4 0.296759,0.002 0.445452,0.003 h 0.20257 c 0.01334,-0.0129 0.02638,-0.026 0.03979,-0.0388 0.455044,-0.39354 0.953725,-0.56892 1.507919,-0.56121 0.115292,0.002 0.233259,0.0113 0.353467,0.0284 0.008,5.3e-4 0.02835,0.003 0.03514,0.003 0.783836,0.0675 1.399718,0.27736 1.854666,0.56844 h 0.195855 c 1.431592,10e-6 1.690661,1.18206 0.780315,1.61283 -0.01725,0.93024 -0.870972,1.81699 -2.491838,1.8867 -0.417219,0.36318 -0.877433,0.59483 -1.47278,0.71469 -0.527894,0.12332 -1.061209,0.22912 -1.601451,0.28112 -2.242278,0.21567 -3.370519,-0.96174 -3.227194,-2.10427 -0.72702,0.34481 -1.470465,0.63414 -2.241206,0.86507 -0.977988,0.26812 -1.977168,0.45324 -2.975012,0.63045 -0.50359,0.0877 -1.011,0.15097 -1.520323,0.19327 -0.29564,0.0241 -0.592378,0.0328 -0.888833,0.0388 -0.07233,0.004 -0.144947,0.002 -0.217559,0.003 1.75e-4,5.3e-4 0.0011,2.6e-4 0.0011,0.002 0.0019,0.022 -0.03996,0.0184 -0.05994,0.0284 -0.288912,0.14251 -0.592604,0.25359 -0.880049,0.39893 -0.290828,0.14946 -0.587997,0.28781 -0.888836,0.416 -0.321131,0.13335 -0.616533,0.31178 -0.905373,0.50178 H 164.12745 V 85.730683 Z m 9.035624,11.593608 c 0.0775,5.8e-5 0.152583,0.0071 0.231511,0.03101 0.03631,0.01098 0.09839,7.94e-4 0.107487,0.03772 0.0739,0.299418 0.08544,0.611309 0.128158,0.916739 -0.169568,0.09743 -0.344643,0.166645 -0.542086,0.186036 -0.200408,0.03036 -0.401489,0.05531 -0.603581,0.07131 -1.036015,0.082 -1.165964,-0.956419 -0.130225,-1.041797 0.193027,-0.01593 0.384739,-0.03816 0.576194,-0.06718 0.06932,0.008 0.305776,-0.113442 0.077,0.0062 0.0035,0.130249 -0.0013,0.244541 -0.0083,0.344164 0.129193,-0.254735 0.239183,-0.488653 0.04186,-0.479557 0.03016,-0.0016 0.0594,-0.0035 0.08837,-0.0041 0.01119,-2.43e-4 0.02252,-5.29e-4 0.03359,-5.29e-4 z m -0.128156,0.0052 c -0.07504,0.01035 -0.146021,0.03571 -0.217043,0.06046 -0.0054,0.0019 0.01069,-0.0042 0.01603,-0.0062 0.087,-0.0339 0.152741,-0.05091 0.201022,-0.05426 z" />
    </clipPath>
    <clipPath
       clipPathUnits="userSpaceOnUse"
       id="clipPath21232">
      <path
         id="path21234"
         style="fill:#ff0000;fill-opacity:1;fill-rule:nonzero;stroke:none;stroke-width:0.264583"
         d="m 17.078295,108.12867 v 21.71237 c 0.200501,-0.23074 0.398077,-0.46393 0.586527,-0.70487 0.392266,-0.51843 0.796582,-1.04421 1.063501,-1.64072 0.103337,-0.35543 0.228452,-0.70226 0.447002,-1.00563 0.295576,-0.41276 0.630128,-0.79584 1.014925,-1.12861 0.401677,-0.35917 0.817665,-0.70035 1.268139,-0.99735 0.426382,-0.31486 0.864489,-0.61375 1.278992,-0.94465 0.448845,-0.36974 0.909744,-0.72405 1.359607,-1.09244 0.332313,-0.2653 0.674917,-0.51804 1.016992,-0.77049 0.164401,-0.12316 0.33247,-0.24068 0.49971,-0.35967 -0.78029,-0.10113 -0.798067,-0.95934 0.139528,-1.03663 0.081,-0.007 0.161751,-0.0143 0.242361,-0.0233 -0.119369,-0.12609 -0.222879,-0.26956 -0.341063,-0.39687 -0.02003,-0.22734 -0.09427,-0.45651 -0.05995,-0.68213 0.08459,-0.55605 0.710473,-0.9763 1.20096,-1.12396 0.14388,-0.0433 0.295206,-0.0559 0.442867,-0.0837 0.160433,0.004 0.32221,-0.008 0.481624,0.0103 0.422886,0.0486 0.967843,0.23576 1.4087,0.4811 0.176924,-0.20022 0.364143,-0.39046 0.577226,-0.55293 0.196537,-0.14314 0.392014,-0.28772 0.588078,-0.4315 0.451279,-0.40315 0.856224,-0.86051 1.336869,-1.23247 0.876141,-0.73696 1.79347,-1.43578 2.833936,-1.92754 0.797766,-0.32031 1.614762,-0.57864 2.447396,-0.79324 0.570907,-0.14822 1.143894,-0.30062 1.67845,-0.55552 0.64339,-0.33651 1.266108,-0.70329 1.851565,-1.13481 0.460732,-0.31088 0.929312,-0.60924 1.444358,-0.82373 0.270518,-0.11147 0.534011,-0.24079 0.794784,-0.3731 0.316667,-0.15317 0.643004,-0.2862 0.961181,-0.43615 0.304189,-0.12597 0.609653,-0.19652 0.939477,-0.17673 0.260067,-0.005 0.520425,-0.0122 0.779799,-0.0331 0.454382,-0.0369 0.906711,-0.0951 1.355987,-0.1726 0.932442,-0.1655 1.866019,-0.3367 2.78071,-0.58394 0.726903,-0.21327 1.420394,-0.49971 2.106332,-0.82062 0.153755,-0.0606 0.309763,-0.11404 0.466638,-0.16484 z m 44.415377,0 c 0.256937,0.5162 -0.154879,1.19269 -1.237652,1.19269 h -1.89394 -2.295467 c -0.526545,0.003 -1.053923,-0.0201 -1.577681,0.0439 -0.398534,0.0543 -0.792451,0.14337 -1.181325,0.24546 -0.349253,0.10037 -0.70602,0.18209 -1.041797,0.32298 -0.734214,0.34955 -1.485207,0.64208 -2.263942,0.8754 -0.977987,0.26811 -1.97717,0.45324 -2.975012,0.63045 -0.503592,0.0877 -1.011002,0.15097 -1.520322,0.19327 -0.295643,0.0241 -0.592381,0.0328 -0.888836,0.0388 -0.07233,0.004 -0.144944,0.002 -0.217556,0.003 1.74e-4,5.3e-4 0.0011,7.9e-4 0.0011,0.002 0.0019,0.022 -0.03997,0.0184 -0.05994,0.0284 -0.28891,0.1425 -0.592601,0.25359 -0.88005,0.39894 -0.290822,0.14946 -0.587994,0.2878 -0.888833,0.41599 -0.408662,0.16971 -0.775708,0.41209 -1.1405,0.65888 -0.639979,0.46839 -1.319948,0.86873 -2.021583,1.2361 -0.651751,0.32247 -1.352468,0.51774 -2.053103,0.70021 -0.758788,0.19692 -1.504749,0.42787 -2.23139,0.72192 -0.860475,0.43176 -1.623362,1.02227 -2.355927,1.64021 -0.455784,0.36444 -0.855808,0.7895 -1.28261,1.18495 -0.239628,0.19398 -0.490569,0.37324 -0.739489,0.555 -0.0917,0.0793 -0.176273,0.16634 -0.258382,0.2558 0.283538,0.29127 0.470604,0.62714 0.326594,1.0883 -0.124336,0.39814 -0.318413,0.48858 -0.591693,0.62684 -0.119007,1.3337 -1.385268,1.4204 -1.692405,0.26097 -0.294949,0.19615 -0.607295,0.36686 -0.91209,0.54673 -0.506359,0.2887 -0.979834,0.62586 -1.445387,0.97514 -0.327001,0.2419 -0.655523,0.48255 -0.973069,0.7369 -0.44299,0.36298 -0.897567,0.71152 -1.339453,1.07591 -0.436706,0.35287 -0.901582,0.6681 -1.352372,1.002 -0.405337,0.26568 -0.779786,0.5698 -1.139982,0.89297 -0.286567,0.24614 -0.536535,0.52861 -0.753959,0.83664 -0.09897,0.14144 -0.141961,0.30443 -0.188102,0.46819 -0.296209,0.821 -0.830888,1.5273 -1.351339,2.21795 -0.574227,0.73959 -1.218031,1.42145 -1.847949,2.11305 -0.104753,0.11504 -0.119899,0.13192 -0.149862,0.16485 v 2.93884 H 132.92549 c -0.075,-0.47397 0.35869,-0.99002 1.30328,-0.99219 1.06276,-0.003 2.12529,0.008 3.18792,-0.0103 0.78715,-0.0392 1.57756,-0.063 2.35903,-0.17105 0.45851,-0.0785 0.89417,-0.23947 1.33066,-0.39481 0.85285,-0.31778 1.7145,-0.6108 2.57659,-0.90227 0.74804,-0.25038 1.46982,-0.57706 2.15387,-0.96894 0.81085,-0.49549 1.52379,-1.12926 2.2624,-1.72289 0.86094,-0.69704 1.82248,-1.25499 2.80241,-1.76526 0.5998,-0.28788 1.16662,-0.63403 1.72806,-0.98909 0.45268,-0.27346 0.88481,-0.57914 1.3317,-0.86145 0.10179,-0.1305 0.21605,-0.25256 0.34675,-0.36277 0.5784,-0.49285 1.2056,-0.92025 1.81488,-1.37304 0.0377,-0.029 0.0753,-0.0588 0.11317,-0.0879 0.46286,-0.41115 0.90599,-0.84313 1.31361,-1.31 0.29594,-0.38713 0.54379,-0.8075 0.755,-1.24591 0.15672,-0.3361 0.34384,-0.6542 0.53795,-0.96945 0.11389,-0.17102 0.24764,-0.32641 0.38861,-0.47594 0.011,-0.138 0.027,-0.27499 0.0698,-0.40566 0.0383,-0.11708 0.0957,-0.22706 0.14366,-0.34055 0.13256,-0.21459 0.30287,-0.38185 0.49403,-0.52142 -0.16455,-0.49492 0.26038,-1.11197 1.2764,-1.15083 0.0477,-0.002 0.0955,-0.003 0.14315,-0.003 0.24359,-0.001 0.4855,0.0185 0.72605,0.0537 v -10.31875 h -21.91701 c 0.11343,1.06779 -0.88935,2.19573 -3.00963,2.19573 h -2.08566 c -0.64865,0.37267 -1.63339,0.44163 -2.84324,-0.0646 -0.72995,-0.30543 -1.55976,-1.21512 -1.52291,-2.13114 z m -34.224267,11.48922 c -0.224734,0.1094 -0.102478,0.28788 0.0016,0 -5.29e-4,8e-5 -0.0011,-8e-5 -0.0016,0 z m -0.868682,0.78858 c -7.94e-4,0.0123 -0.0016,0.0248 -0.0026,0.0367 0.0056,-0.0111 0.01103,-0.0221 0.01654,-0.0331 -0.0045,-0.002 -0.0094,-0.003 -0.01394,-0.004 z m 2.927469,0.37466 c -0.0021,0.002 -0.0042,0.004 -0.0062,0.006 0.01254,0.0103 0.02567,0.0203 0.03927,0.03 0.01037,0.002 0.03073,0.0141 0.03101,0.005 2.64e-4,-0.0134 -0.02889,-0.0279 -0.06408,-0.0408 z m 132.756238,0.95705 c -0.36486,0.3854 -0.74307,0.75832 -1.12396,1.12809 -0.33913,0.26524 -0.51691,0.56501 -0.72916,0.92294 -0.23539,0.40047 -0.51277,0.773 -0.78134,1.15135 -0.008,0.0517 -0.0203,0.1023 -0.0269,0.15452 -0.0938,0.47683 -0.23206,0.9429 -0.44648,1.38079 -0.3306,0.69728 -0.69848,1.3886 -1.23145,1.95492 -0.11016,0.10023 -0.21426,0.20726 -0.33021,0.30076 -0.51489,0.4151 -1.14088,0.65057 -1.76423,0.84646 -0.0455,0.0151 -0.0914,0.0299 -0.13695,0.045 -0.37405,0.41857 -0.80602,0.50069 -1.11466,0.34881 -0.0389,0.0112 -0.0773,0.0242 -0.11627,0.0351 -0.18849,0.12659 -0.39251,0.23241 -0.59686,0.33383 -0.33053,0.16382 -0.67653,0.29282 -1.01699,0.43357 -0.38425,0.15579 -0.76327,0.32297 -1.14929,0.4749 -0.37983,0.17821 -0.79814,0.25961 -1.18339,0.42065 -0.2345,0.10813 -0.43727,0.27735 -0.64699,0.42685 -0.2265,0.16976 -0.44556,0.35227 -0.64389,0.55449 -0.14085,0.14296 -0.27878,0.28738 -0.40824,0.4408 -0.082,0.0958 -0.17967,0.17358 -0.27957,0.24908 -0.56211,0.42435 -0.68064,0.0398 -0.68781,-0.47439 -0.30878,0.23156 -0.626,0.45167 -0.9586,0.64957 -0.7843,0.44366 -1.60566,0.82264 -2.46187,1.10691 -0.76337,0.25805 -1.52585,0.51827 -2.28254,0.7953 h 20.11763 z m -14.47508,9.85624 c -0.0604,0.0127 -0.15462,0.10885 -0.29973,0.32298 -0.008,0.0111 -0.0114,0.0251 -0.0222,0.0331 0.10355,-0.12228 0.21178,-0.24004 0.32195,-0.35605 z" />
    </clipPath>
    <clipPath
       clipPathUnits="userSpaceOnUse"
       id="clipPath21266">
      <path
         id="path21268"
         style="fill:#ff0000;fill-opacity:1;fill-rule:nonzero;stroke:none;stroke-width:0.264583"
         d="m 19.12126,85.730224 v 21.029726 c 0.212267,-0.15928 0.422898,-0.32087 0.630453,-0.48628 0.901282,-0.70406 1.784929,-1.4328 2.603458,-2.23294 0.660864,-0.67273 1.316406,-1.35401 1.903243,-2.09341 0.414308,-0.52868 0.828287,-1.05766 1.257288,-1.57458 0.324503,-0.35947 0.662845,-0.704901 1.008207,-1.04438 0.258831,-0.256839 0.521426,-0.50994 0.787549,-0.759127 -0.879114,-0.03652 -0.940148,-0.963856 0.03669,-1.044379 0.193024,-0.01593 0.384738,-0.03816 0.576193,-0.06718 0.06932,0.008 0.305754,-0.113433 0.077,0.0062 0.0035,0.130241 -0.0013,0.244538 -0.0083,0.344165 0.129194,-0.254739 0.23917,-0.488654 0.04186,-0.479558 0.03016,-0.0016 0.0594,-0.003 0.08837,-0.0036 0.01119,-2.44e-4 0.02252,-5.29e-4 0.03359,-5.29e-4 0.0775,5.3e-5 0.152583,0.0071 0.231511,0.03101 0.03631,0.01098 0.09839,7.94e-4 0.107487,0.03772 0.0092,0.03748 0.01163,0.07638 0.01912,0.114205 0.134939,-0.11906 0.268415,-0.239554 0.398425,-0.364834 0.618794,-0.53127 1.224661,-1.077148 1.830896,-1.62264 0.806047,-0.719449 1.61395,-1.446043 2.53266,-2.021583 0.513993,-0.311539 0.770541,-0.487661 1.33222,-0.738973 0.649478,-0.2906 1.341548,-0.46082 2.036566,-0.59893 0.370139,-0.07355 0.7088,-0.108291 1.015961,-0.110069 0.02479,-1.48e-4 0.04537,0.0033 0.06976,0.0036 0.103793,-0.318788 0.258392,-0.654727 0.473874,-1.003556 0.08619,-0.139515 0.173577,-0.277829 0.265099,-0.413928 0.283075,-0.401288 0.598101,-0.781817 1.013375,-1.054716 0.518539,-0.323715 1.07804,-0.559964 1.674831,-0.698664 0.402836,-0.06583 0.807331,-0.09504 1.213879,-0.12764 0.384877,-0.03932 0.767538,-0.08935 1.147737,-0.161748 0.490262,-0.09564 0.97904,-0.200742 1.469159,-0.297141 0.56855,-0.123465 1.13546,-0.2532 1.701705,-0.38654 0.236069,-0.862335 1.223137,-1.621605 2.962611,-1.621605 h 0.886248 0.980303 1.040765 c 0.06983,-0.08706 0.140536,-0.166978 0.270266,-0.307993 -0.007,0.0064 -0.02749,0.02611 -0.02119,0.01913 0.08626,-0.09679 0.175723,-0.185716 0.268719,-0.269235 z m 37.465414,0 c 0.0033,0.0037 0.0065,0.0082 0.0098,0.01188 0.01834,-0.0038 0.03621,-0.0083 0.05478,-0.01188 z m 6.236827,0 c 0.92256,1.177332 0.156686,2.871859 -2.10943,2.969328 -0.417219,0.363181 -0.877433,0.594826 -1.472779,0.714685 -0.527892,0.123322 -1.06121,0.229121 -1.601452,0.28112 -0.643522,0.0619 -1.194729,0.0082 -1.651063,-0.125574 -0.09582,0.06445 -0.298948,0.06577 -0.416513,0.111104 -0.184258,0.07109 -0.597765,0.189849 -0.85576,0.265102 -0.365112,0.231817 -0.55675,0.306961 -1.006658,0.400492 h -5.29e-4 c -0.02979,0.0062 -0.05614,0.0122 -0.08837,0.0186 -0.01791,0.0036 0.03911,-0.0073 0.07493,-0.01447 -0.09928,0.03124 -0.198451,0.06336 -0.298691,0.09147 -0.120332,0.02612 -0.178257,0.03908 -0.22789,0.04961 -0.216416,0.139668 -0.432438,0.280529 -0.669727,0.383439 -0.382871,0.173919 -0.768625,0.346345 -1.188043,0.411345 -0.465658,0.0706 -0.932868,0.100142 -1.404048,0.08423 -0.06972,-0.0024 -0.137848,-0.0063 -0.205155,-0.01085 -0.166053,0.04272 -0.332267,0.08462 -0.498677,0.12609 -1.113282,0.277138 -2.23013,0.540316 -3.351217,0.783931 -0.516925,0.102982 -1.032608,0.212453 -1.549776,0.314193 -0.500846,0.09543 -1.005631,0.163208 -1.51257,0.216009 -0.198943,0.019 -0.397955,0.03786 -0.597379,0.05116 -0.06195,0.0041 -0.175159,0.0043 -0.26045,0.02479 0.01577,-0.0028 0.02658,-0.0035 0.0186,0.0041 -0.03176,0.0303 -0.07898,0.04458 -0.128157,0.05736 -0.04559,0.07466 -0.09772,0.144518 -0.140043,0.221176 -0.709391,1.284674 -1.64487,1.80713 -2.444811,1.786969 -0.441214,0.495866 -1.127244,0.948743 -2.08773,1.249021 -0.34594,0.108151 -0.701471,0.172212 -1.028361,0.338479 -0.242816,0.12351 -0.486889,0.284972 -0.716235,0.428916 -0.705913,0.457721 -1.327338,1.03047 -1.952852,1.589567 -0.625539,0.563364 -1.251786,1.126209 -1.890324,1.674834 -0.348816,0.3418 -0.731499,0.64409 -1.098124,0.96531 -0.367578,0.33127 -0.724832,0.67352 -1.075903,1.02216 -0.292023,0.2874 -0.57936,0.5784 -0.853695,0.88264 -0.360732,0.45116 -0.719177,0.90382 -1.075386,1.35857 -0.678715,0.85975 -1.436075,1.65288 -2.20245,2.43396 -0.940893,0.92907 -1.960035,1.77314 -3.000334,2.58744 -0.484923,0.38572 -0.983903,0.75304 -1.484663,1.11776 -0.587768,0.42808 -1.147099,0.67083 -1.650546,0.76843 v 1.65829 h 19.062415 c 0.137443,-0.0523 0.273405,-0.10955 0.406694,-0.17311 0.64339,-0.3365 1.266105,-0.7033 1.851567,-1.13482 0.460725,-0.31091 0.929323,-0.60923 1.444356,-0.82372 0.270518,-0.11147 0.534013,-0.24079 0.794784,-0.3731 0.316667,-0.15317 0.643009,-0.2862 0.961181,-0.43615 0.304192,-0.12597 0.609648,-0.19652 0.939477,-0.17673 0.260067,-0.005 0.520425,-0.0122 0.779799,-0.0331 0.454385,-0.0369 0.906708,-0.0951 1.355989,-0.1726 0.932437,-0.16548 1.866019,-0.3367 2.780708,-0.58394 0.72689,-0.21327 1.42041,-0.49972 2.106332,-0.82062 0.410014,-0.16149 0.833014,-0.28208 1.258837,-0.39481 0.468723,-0.12035 0.942684,-0.22889 1.42317,-0.2899 0.443786,-0.0495 0.888656,-0.0595 1.334286,-0.0589 0.148542,1.9e-4 0.296756,0.002 0.44545,0.003 h 2.295466 1.893941 c 1.750208,1e-5 1.750208,1.76837 0,1.76837 H 58.36175 56.066284 c -0.526529,0.003 -1.053928,-0.0201 -1.577682,0.0439 -0.398536,0.0543 -0.792445,0.14338 -1.181322,0.24546 -0.349255,0.10037 -0.706022,0.18209 -1.041797,0.32298 -0.734216,0.34955 -1.485217,0.64211 -2.263944,0.8754 -0.977987,0.26812 -1.977173,0.45324 -2.975012,0.63045 -0.503592,0.0877 -1.010997,0.15097 -1.520323,0.19327 -0.295626,0.0241 -0.592378,0.0328 -0.888833,0.0388 -0.07233,0.004 -0.144949,0.002 -0.217559,0.003 1.72e-4,5.3e-4 0.0011,-10e-4 0.0011,0.002 0.0019,0.022 -0.03996,0.0184 -0.05994,0.0284 -0.288912,0.14251 -0.592606,0.2536 -0.880052,0.39894 -0.290822,0.14946 -0.587994,0.28779 -0.888833,0.41599 -0.321125,0.13335 -0.616535,0.31178 -0.905373,0.50178 h 93.945106 c -0.37347,-0.91039 -0.0808,-2.00219 1.98645,-2.59054 h 0.50643 1.68 2.14147 c 0.41279,0 0.78239,0.0431 1.11052,0.11989 0.31254,-0.11079 0.66675,-0.19588 1.06764,-0.24546 0.25135,-0.0311 0.53214,-0.0526 0.76378,-0.12299 0.23935,-0.0858 0.47753,-0.17457 0.71675,-0.26097 -0.0866,0.0318 0.12073,-0.0668 0.21342,-0.10697 0.0755,-0.0437 0.15079,-0.0875 0.22738,-0.12919 0.15053,-0.082 0.32729,-0.12238 0.48782,-0.18138 0.58939,-0.27008 1.15526,-0.59013 1.72858,-0.89246 1.1314,-0.5748 2.25267,-1.16056 3.31401,-1.85776 1.32488,-0.88479 2.52416,-1.92842 3.68505,-3.01429 1.00243,-0.93947 2.00808,-1.87391 3.05201,-2.76727 0.32879,-0.34049 0.87273,-0.63 1.10742,-1.053687 0.16379,-0.251817 0.25719,-0.544716 0.35089,-0.828892 0.12743,-0.375486 0.33839,-0.69334 0.56327,-1.013888 0.21379,-0.304787 0.39743,-0.490633 0.56069,-0.599967 v -0.07855 c 0,-2.012628 1.01642,-3.018936 2.03295,-3.018936 0.43248,0 0.86487,0.18243 1.21905,0.546735 v -9.194271 z m -21.047292,7.220749 c -0.04184,0.01116 -0.08297,0.02315 -0.113689,0.04703 -0.0092,0.0071 0.02254,-0.01072 0.03411,-0.0088 0.0059,7.94e-4 -0.0086,0.0084 -0.01291,0.01241 0.02299,0.0088 0.05716,-0.01598 0.0925,-0.05064 z m -13.747482,4.378026 c -0.07504,0.01035 -0.146019,0.03571 -0.217041,0.06046 -0.0054,0.0019 0.01068,-0.0042 0.01602,-0.0062 0.087,-0.0339 0.152737,-0.05091 0.201021,-0.05426 z m 134.879623,3.752231 c -0.12076,0.016 -0.23423,0.0337 -0.34107,0.0517 0.15099,0.26369 0.34399,0.31279 0.61599,-0.0103 -0.0876,-0.0141 -0.1783,-0.028 -0.27492,-0.0408 z m 0.41134,0.0641 c -0.16677,0.40012 -0.36135,0.78793 -0.61443,1.14257 -0.0938,0.12551 -0.18192,0.25491 -0.28112,0.3762 -0.43231,0.52863 -0.974,0.95359 -1.48776,1.39785 -0.99905,0.85436 -1.95963,1.75067 -2.9192,2.64894 -1.33368,1.24506 -2.71618,2.43651 -4.23902,3.44836 -0.24134,0.15662 -0.47938,0.31826 -0.72399,0.46974 -0.94085,0.58263 -1.94141,1.05809 -2.9161,1.57923 -0.51625,0.27215 -1.02701,0.55929 -1.55288,0.81339 H 164.1274 V 101.3272 c -0.21009,-0.0581 -0.47501,-0.12339 -0.80771,-0.1819 z m -17.68264,8.75244 c -7.9e-4,7.9e-4 -0.002,0.002 -0.004,0.003 5.3e-4,-2.6e-4 0.004,-0.002 0.004,-0.002 z m -0.007,0.005 c 0.0104,-0.007 0.011,-0.008 -0.0822,0.0496 -0.0163,0.0114 -0.066,0.0446 -0.0486,0.0346 0.0462,-0.0257 0.0917,-0.0527 0.13746,-0.0791 -0.0355,0.0166 -0.0199,0.005 -0.007,-0.005 z" />
    </clipPath>
    <clipPath
       clipPathUnits="userSpaceOnUse"
       id="clipPath21020-9">
      <path
         id="path21022-3"
         style="fill:#ff0000;fill-opacity:1;fill-rule:nonzero;stroke:none;stroke-width:0.264583"
         d="m 19.121313,85.730683 v 27.290847 h 19.062404 c 0.13744,-0.0523 0.273399,-0.10956 0.406691,-0.17312 0.64339,-0.3365 1.266105,-0.7033 1.851567,-1.13482 0.46073,-0.31091 0.929312,-0.60923 1.444358,-0.82372 0.270518,-0.11147 0.534011,-0.24079 0.794782,-0.3731 0.316669,-0.15317 0.642998,-0.2862 0.961181,-0.43615 0.304191,-0.12597 0.609653,-0.19652 0.93948,-0.17673 0.260067,-0.005 0.520422,-0.0122 0.779796,-0.0331 0.454387,-0.0369 0.906708,-0.0951 1.355989,-0.1726 0.932442,-0.16548 1.866019,-0.3367 2.78071,-0.58394 0.726903,-0.21327 1.420395,-0.49972 2.106332,-0.82062 0.410012,-0.16149 0.833017,-0.28209 1.258837,-0.39481 0.468736,-0.12035 0.942679,-0.2289 1.423168,-0.2899 0.443785,-0.0495 0.888656,-0.0595 1.334286,-0.0589 0.148542,1.9e-4 0.296759,0.002 0.445452,0.003 h 0.20257 c 0.01334,-0.0129 0.02638,-0.026 0.03979,-0.0388 0.455044,-0.39354 0.953725,-0.56892 1.507919,-0.56121 0.115292,0.002 0.233259,0.0113 0.353467,0.0284 0.008,5.3e-4 0.02835,0.003 0.03514,0.003 0.783836,0.0675 1.399718,0.27736 1.854666,0.56844 h 0.195855 c 1.431592,10e-6 1.690661,1.18206 0.780315,1.61283 -0.01725,0.93024 -0.870972,1.81699 -2.491838,1.8867 -0.417219,0.36318 -0.877433,0.59483 -1.47278,0.71469 -0.527894,0.12332 -1.061209,0.22912 -1.601451,0.28112 -2.242278,0.21567 -3.370519,-0.96174 -3.227194,-2.10427 -0.72702,0.34481 -1.470465,0.63414 -2.241206,0.86507 -0.977988,0.26812 -1.977168,0.45324 -2.975012,0.63045 -0.50359,0.0877 -1.011,0.15097 -1.520323,0.19327 -0.29564,0.0241 -0.592378,0.0328 -0.888833,0.0388 -0.07233,0.004 -0.144947,0.002 -0.217559,0.003 1.75e-4,5.3e-4 0.0011,2.6e-4 0.0011,0.002 0.0019,0.022 -0.03996,0.0184 -0.05994,0.0284 -0.288912,0.14251 -0.592604,0.25359 -0.880049,0.39893 -0.290828,0.14946 -0.587997,0.28781 -0.888836,0.416 -0.321131,0.13335 -0.616533,0.31178 -0.905373,0.50178 H 164.12745 V 85.730683 Z m 9.035624,11.593608 c 0.0775,5.8e-5 0.152583,0.0071 0.231511,0.03101 0.03631,0.01098 0.09839,7.94e-4 0.107487,0.03772 0.0739,0.299418 0.08544,0.611309 0.128158,0.916739 -0.169568,0.09743 -0.344643,0.166645 -0.542086,0.186036 -0.200408,0.03036 -0.401489,0.05531 -0.603581,0.07131 -1.036015,0.082 -1.165964,-0.956419 -0.130225,-1.041797 0.193027,-0.01593 0.384739,-0.03816 0.576194,-0.06718 0.06932,0.008 0.305776,-0.113442 0.077,0.0062 0.0035,0.130249 -0.0013,0.244541 -0.0083,0.344164 0.129193,-0.254735 0.239183,-0.488653 0.04186,-0.479557 0.03016,-0.0016 0.0594,-0.0035 0.08837,-0.0041 0.01119,-2.43e-4 0.02252,-5.29e-4 0.03359,-5.29e-4 z m -0.128156,0.0052 c -0.07504,0.01035 -0.146021,0.03571 -0.217043,0.06046 -0.0054,0.0019 0.01069,-0.0042 0.01603,-0.0062 0.087,-0.0339 0.152741,-0.05091 0.201022,-0.05426 z" />
    </clipPath>
    <inkscape:path-effect
       effect="spiro"
       id="path-effect1991-80"
       is_visible="true"
       lpeversion="1" />
    <inkscape:path-effect
       effect="spiro"
       id="path-effect8155-8"
       is_visible="true"
       lpeversion="1" />
    <marker
       style="overflow:visible"
       id="Arrow2-2"
       refX="0"
       refY="0"
       orient="auto-start-reverse"
       inkscape:stockid="Arrow2"
       markerWidth="7.6999998"
       markerHeight="5.5999999"
       viewBox="0 0 7.7 5.6"
       inkscape:isstock="true"
       inkscape:collect="always"
       preserveAspectRatio="xMidYMid">
      <path
         transform="scale(0.7)"
         d="M -2,-4 9,0 -2,4 c 2,-2.33 2,-5.66 0,-8 z"
         style="fill:context-stroke;fill-rule:evenodd;stroke:none"
         id="arrow2L-1" />
    </marker>
    <inkscape:path-effect
       effect="spiro"
       id="path-effect8155-87"
       is_visible="true"
       lpeversion="1" />
  </defs>
  <g
     inkscape:label="Layer 1"
     inkscape:groupmode="layer"
     id="layer1">
    <path
       style="fill:none;stroke:#000000;stroke-width:0.42333333;stroke-linecap:round;stroke-dasharray:none"
       d="M 19.297596,108.4117 C 29.826681,93.779572 48.049029,85.03529 66.051122,85.976282 c 4.087423,0.213655 8.151418,0.893232 12.080611,2.039583 11.762774,3.431815 21.869377,10.858758 32.631007,16.717735 5.38081,2.92949 11.00812,5.49871 16.96472,6.93185 5.95661,1.43314 12.28129,1.69205 18.1812,0.041 7.69656,-2.15388 14.40042,-7.63356 18.04246,-14.747756"
       id="path1989"
       clip-path="url(#clipPath21020)"
       inkscape:label="main path"
       inkscape:original-d="m 19.297596,108.4117 c 15.532476,-7.53051 31.169282,-14.956679 46.753526,-22.435418 15.584244,-7.478737 8.054004,1.359987 12.080611,2.039583 4.026603,0.679598 45.184877,15.793965 67.776927,23.690545 22.59204,7.89658 12.02857,-9.83157 18.04246,-14.747756"
       inkscape:path-effect="#path-effect1991"
       transform="translate(-0.11724424)" />
    <text
       xml:space="preserve"
       style="font-size:3.175px;fill:#000000;fill-opacity:1;stroke:#000000;stroke-width:0.352777;stroke-linecap:round;stroke-dasharray:none;stroke-dashoffset:0"
       x="139.92444"
       y="117.76529"
       id="text13663"><tspan
         sodipodi:role="line"
         id="tspan13661"
         style="fill:#000000;fill-opacity:1;stroke:#000000;stroke-width:0.352778;stroke-dasharray:none"
         x="139.92444"
         y="117.76529">$p$</tspan></text>
    <text
       xml:space="preserve"
       style="font-size:3.175px;fill:#000000;fill-opacity:1;stroke:#000000;stroke-width:0.352777;stroke-linecap:round;stroke-dasharray:none"
       x="34.311462"
       y="99.081192"
       id="text7264"><tspan
         sodipodi:role="line"
         id="tspan7262"
         style="stroke-width:0.352778"
         x="34.311462"
         y="99.081192">$q=\rho_t^{-1}(p)$</tspan><tspan
         sodipodi:role="line"
         style="stroke-width:0.352778"
         x="34.311462"
         y="103.04994"
         id="tspan8042" /></text>
    <text
       xml:space="preserve"
       style="font-size:3.175px;fill:#6ca3d8;fill-opacity:1;stroke:#6ca3d8;stroke-width:0.352777;stroke-linecap:round;stroke-dasharray:none"
       x="134.47792"
       y="104.55568"
       id="text9288"><tspan
         sodipodi:role="line"
         id="tspan9286"
         style="fill:#6ca3d8;stroke:#6ca3d8;stroke-width:0.352778"
         x="134.47792"
         y="104.55568">$V_t(p)$</tspan></text>
    <text
       xml:space="preserve"
       style="font-size:3.175px;fill:#000000;stroke:#000000;stroke-width:0.352777;stroke-linecap:round"
       x="135.78841"
       y="123.91618"
       id="text1303"><tspan
         sodipodi:role="line"
         id="tspan1301"
         style="stroke-width:0.352778" /></text>
    <text
       xml:space="preserve"
       style="font-size:3.175px;fill:#6ca3d8;stroke:#6ca3d8;stroke-width:0.176389;stroke-linecap:round;stroke-dasharray:none;stroke-dashoffset:0"
       x="33.38789"
       y="78.586609"
       id="text5706"><tspan
         sodipodi:role="line"
         id="tspan5704"
         style="fill:#6ca3d8;stroke:#6ca3d8;stroke-width:0.176389;stroke-dasharray:none"
         x="33.38789"
         y="78.586609">$\displaystyle\dv{s} \eval_{s=t} \paren*{\rho_s \circ \rho^{-1}_t} (p)$</tspan></text>
    <path
       style="font-variation-settings:normal;opacity:1;fill:#957fbb;fill-opacity:1;stroke:#957fbb;stroke-width:0.1;stroke-linecap:round;stroke-linejoin:miter;stroke-miterlimit:4;stroke-dasharray:0.2, 0.6;stroke-dashoffset:0;stroke-opacity:1;stop-color:#000000;stop-opacity:1"
       d="M 50.181853,81.836051 155.56464,101.13887"
       id="path5795" />
    <path
       id="path9872"
       clip-path="url(#clipPath21020-9)"
       style="fill:none;stroke:#957fbb;stroke-width:0.59972222;stroke-linecap:round;stroke-dasharray:none;marker-mid:url(#Arrow1L)"
       inkscape:label="translation path"
       d="m 36.265185,93.24819 c 8.996551,-5.148234 19.427734,-7.813344 29.785937,-7.271908 4.087415,0.213655 8.151426,0.893235 12.080611,2.039583 11.76275,3.431808 21.869397,10.85877 32.631007,16.717735 5.38079,2.92948 11.00813,5.49871 16.96472,6.93185 4.2062,1.01199 8.59595,1.43848 12.89006,1.0204"
       transform="translate(-0.2684876,0.02890234)" />
    <path
       style="fill:#6ca3d8;fill-opacity:1;stroke:#6ca3d8;stroke-width:0.353;stroke-linecap:round;stroke-dasharray:none;marker-end:url(#Arrow2)"
       d="M 35.874386,93.436477 49.291887,83.172432"
       id="path8153"
       inkscape:path-effect="#path-effect8155"
       inkscape:original-d="m 35.874386,93.436477 c 4.472748,-3.421236 8.945253,-6.842579 13.417501,-10.264045"
       inkscape:label="orig tangent" />
    <path
       style="fill:#6ca3d8;fill-opacity:1;stroke:#6ca3d8;stroke-width:0.353;stroke-linecap:round;stroke-dasharray:none;marker-end:url(#Arrow2-2)"
       d="m 140.69259,112.58287 13.4175,-10.26404"
       id="path8153-1"
       inkscape:path-effect="#path-effect8155-87"
       inkscape:original-d="m 140.69259,112.58287 c 4.47274,-3.42124 8.94525,-6.84258 13.4175,-10.26404"
       inkscape:label="orig tangent" />
    <path
       style="font-variation-settings:normal;fill:#957fbb;fill-opacity:1;stroke:#957fbb;stroke-width:0.1;stroke-linecap:round;stroke-linejoin:miter;stroke-miterlimit:4;stroke-dasharray:0.2, 0.6;stroke-dashoffset:0;stroke-opacity:1;stop-color:#000000"
       d="M 35.361923,93.182291 140.74471,112.48511"
       id="path5795-8" />
    <circle
       style="fill:#000000;stroke:#6ca3d8;stroke-width:0.423333;stroke-linecap:round;stroke-dasharray:none;stroke-dashoffset:0"
       id="path8720-7"
       cx="140.52135"
       cy="112.60345"
       r="0.79984725" />
    <circle
       style="fill:#000000;stroke:#6ca3d8;stroke-width:0.423333;stroke-linecap:round;stroke-dasharray:none;stroke-dashoffset:0"
       id="path8720"
       cx="35.779831"
       cy="93.262192"
       r="0.79984725"
       inkscape:label="point_q" />
  </g>
</svg>
